# xmcd CD database file
#
# Track frame offsets:
#	150
#	16369
#	30568
#	42692
#	56640
#	69260
#	80638
#	91969
#	104078
#	117254
#	132536
#	144316
#	158127
#	169153
#	183195
#	194992
#	206556
#	220983
#	236177
#	249960
#
# Disc length: 3504 seconds
#
# Revision: 0
# Processed by: cddbd v1.4PL0 Copyright (c) Steve Scherf et al.
# Submitted via: CDex 1.51
#
DISCID=2c0dae14
DTITLE=Juan Acereto - Trova y Bolero
DYEAR=1900
DGENRE=Español
TTITLE0=Morena mia
TTITLE1=Alburas
TTITLE2=El sol y el fuego
TTITLE3=Camino de tortura
TTITLE4=Este modo de quererte
TTITLE5=Amor y dolor
TTITLE6=Mariposa misteriosa
TTITLE7=Beso asesino
TTITLE8=El jaguar
TTITLE9=La calle se vuelve clara
TTITLE10=Nuestra cita
TTITLE11=Tu, mi unica pasion
TTITLE12=Siempre a mi lado
TTITLE13=Tnwerte
TTITLE14=Eres como te soñe
TTITLE15=Ave sin rumbo
TTITLE16=Y calla corazon
TTITLE17=Dime si aun me quieres
TTITLE18=Dardo de amor
TTITLE19=La muralla
EXTD=
EXTT0=
EXTT1=
EXTT2=
EXTT3=
EXTT4=
EXTT5=
EXTT6=
EXTT7=
EXTT8=
EXTT9=
EXTT10=
EXTT11=
EXTT12=
EXTT13=
EXTT14=
EXTT15=
EXTT16=
EXTT17=
EXTT18=
EXTT19=
PLAYORDER=
